# xmcd
#
# Track frame offsets:
# 150
# 19121
# 32781
# 50936
# 65267
# 82347
# 102156
# 123909
# 149047
# 161952
# 174546
# 191151
# 208483
# 221174
# 232152
# 251339
# 272920
# 290179
# 304889
# 317700
#
# Disc length: 4421 seconds
#
#
# Revision: 0
# Processed by: cddbd v1.5.2PL0 Copyright (c) Steve Scherf et al.
# Submitted via: FreeRIP 2.96 
#
DISCID=50114314
DTITLE=Diverse - Country Music Meeting 2011
DYEAR=2011
DGENRE=Country
TTITLE0=Laura Bryna - Hometown Heroes
TTITLE1=Big Dig and The Sidechicks - Boobs
TTITLE2=Scooter Lee - Ribbon Of Highway
TTITLE3=Tommy Roberts Jr. - Rock In The Storm
TTITLE4=Annika Bruhns - Look At Us Now
TTITLE5=The Thompson Brothers - One Drink At A Time
TTITLE6=Michelle Conner and Far From Home - A Humble Man
TTITLE7=Larry Schuba - Morgengedanken
TTITLE8=C.C. Adams Band - I Love My Life
TTITLE9=Dispatch Skulls - Red Rockin' Rita
TTITLE10=Mountaineers - 15 Tons Over Broadway
TTITLE11=Debbie Nunn - Say Something Good
TTITLE12=Cripple Creek Band - I Forgot To Forget
TTITLE13=The Lubbocks - Above And Beyond
TTITLE14=The Cashbags - (Hey) What's New?
TTITLE15=The Cactus Jacks - Tennessee
TTITLE16=Taneytown - Dog Eat Dog
TTITLE17=The Lennerockers - Boogie Woogie Queen
TTITLE18=Cody McCarver - White Trash With Money
TTITLE19=The Country Cousins - I Wonder How
EXTD=G.
EXTT0=
EXTT1=
EXTT2=
EXTT3=
EXTT4=
EXTT5=
EXTT6=
EXTT7=
EXTT8=
EXTT9=
EXTT10=
EXTT11=
EXTT12=
EXTT13=
EXTT14=
EXTT15=
EXTT16=
EXTT17=
EXTT18=
EXTT19=
PLAYORDER=
